External Loads File
version=1
nRows=38
nColumns=13
Range=5.000000e-03-10 seconds
endheader
time 	forceRightX 	forceRightY 	forceRightZ 	pointRightX 	pointRightY 	pointRightZ 	forceLeftX 	forceLeftY 	forceLeftZ 	pointLeftX 	pointLeftY 	pointLeftZ 		
7.505000 -11.860649 763.139917 -0.000000 0.392025 0.268308 -0.097384 131.339395 -13.964438 -0.000000 0.105962 0.351871 -0.333942
7.510000 4.196238 803.146331 -0.000000 0.388376 0.258035 -0.097352 134.803092 -17.093593 -0.000000 0.110196 0.361882 -0.334059
7.515000 19.966640 840.938792 -0.000000 0.384333 0.247882 -0.097172 134.665418 -22.158280 -0.000000 0.114966 0.371698 -0.334000
7.520000 35.263970 877.257459 -0.000000 0.379813 0.237912 -0.096912 131.197392 -28.523058 -0.000000 0.120480 0.381227 -0.333991
7.525000 49.562786 913.017653 -0.000000 0.374839 0.228373 -0.096493 124.811424 -35.511874 -0.000000 0.126600 0.390487 -0.334048
7.530000 63.372306 949.079071 -0.000000 0.369459 0.219011 -0.096248 115.929221 -42.585172 -0.000000 0.133228 0.399312 -0.334051
7.535000 77.431384 985.990015 -0.000000 0.363600 0.210078 -0.096064 104.986460 -49.155347 -0.000000 0.140303 0.407925 -0.334074
7.540000 91.922457 1023.747748 -0.000000 0.357285 0.201688 -0.095888 92.487152 -54.465580 -0.000000 0.147795 0.416127 -0.334116
7.545000 107.697903 1061.544446 -0.000000 0.350596 0.193853 -0.095769 78.940192 -57.709734 -0.000000 0.155678 0.423924 -0.334138
7.550000 126.173363 1097.801946 -0.000000 0.343423 0.186613 -0.095432 64.850511 -58.015119 -0.000000 0.163956 0.431403 -0.334206
7.555000 147.919508 1130.533515 -0.000000 0.335786 0.179763 -0.095239 50.800158 -54.417516 -0.000000 0.172628 0.438365 -0.334168
7.560000 171.550418 1157.883605 -0.000000 0.328010 0.173454 -0.094986 37.523242 -45.977673 -0.000000 0.181596 0.444871 -0.334176
7.565000 196.283383 1178.174126 -0.000000 0.320014 0.167742 -0.094748 25.785738 -32.103637 -0.000000 0.190810 0.450673 -0.334224
7.570000 221.739620 1190.024213 -0.000000 0.311874 0.162327 -0.094436 16.351258 -12.668555 -0.000000 0.200196 0.455867 -0.334338
7.575000 247.980495 1192.263492 -0.000000 0.303695 0.157442 -0.094073 9.882022 11.928957 -0.000000 0.210192 0.460352 -0.335362
7.580000 271.136098 1184.796321 -0.000000 0.295413 0.153237 -0.093713 6.735691 40.713994 -0.000000 0.219828 0.464084 -0.334879
7.585000 294.254615 1166.274605 -0.000000 0.286774 0.149726 -0.093313 7.023999 71.984159 -0.000000 0.229828 0.467202 -0.334926
7.590000 314.199989 1136.934723 -0.000000 0.277887 0.147059 -0.092965 10.283188 103.572644 -0.000000 0.239596 0.469984 -0.335103
7.595000 330.169508 1096.748426 -0.000000 0.268773 0.145335 -0.092686 15.625559 133.202288 -0.000000 0.249168 0.472426 -0.335601
7.600000 341.023027 1045.959077 -0.000000 0.259359 0.144323 -0.092644 21.784474 158.997323 -0.000000 0.258343 0.474973 -0.335623
7.605000 347.200855 984.387446 -0.000000 0.249801 0.144015 -0.092586 27.684034 179.894618 -0.000000 0.267740 0.477038 -0.335700
7.610000 346.082291 912.959706 -0.000000 0.240316 0.144319 -0.092576 32.032343 195.903010 -0.000000 0.276930 0.478585 -0.335746
7.615000 336.324538 832.480382 -0.000000 0.231290 0.145328 -0.092706 34.044803 207.722537 -0.000000 0.285797 0.479436 -0.335872
7.620000 318.751035 743.378817 -0.000000 0.222617 0.147005 -0.092777 33.712387 216.193643 -0.000000 0.294285 0.479358 -0.336146
7.625000 294.540936 646.507231 -0.000000 0.214198 0.149129 -0.092780 31.294186 222.073968 -0.000000 0.302522 0.478902 -0.336369
7.630000 265.389523 543.013346 -0.000000 0.205789 0.151933 -0.092796 27.194987 226.003087 -0.000000 0.310393 0.477920 -0.336647
7.635000 232.581498 434.582203 -0.000000 0.197552 0.155531 -0.092522 21.536855 228.616888 -0.000000 0.317841 0.476325 -0.336796
7.640000 197.947137 322.840852 -0.000000 0.189299 0.159869 -0.092648 14.588799 230.608643 -0.000000 0.324939 0.474002 -0.336933
7.645000 162.710566 209.812848 -0.000000 0.180976 0.164895 -0.092733 6.483015 232.880510 -0.000000 0.331911 0.470841 -0.337596
7.650000 127.319955 97.964361 -0.000000 0.172039 0.170448 -0.093597 -2.923181 236.495002 -0.000000 0.338373 0.466923 -0.337841
7.655000 91.854142 -9.809584 -0.000000 0.164064 0.176840 -0.093519 -14.561711 242.432358 -0.000000 0.344453 0.462070 -0.337982
7.660000 56.651255 -111.206435 -0.000000 0.156004 0.183969 -0.093583 -27.955858 251.536688 -0.000000 0.350171 0.456303 -0.338081
7.665000 21.289726 -203.073814 -0.000000 0.148499 0.191834 -0.093703 -43.047978 264.533532 -0.000000 0.356105 0.449674 -0.338557
7.670000 -13.618928 -281.665383 -0.000000 0.141560 0.199549 -0.093822 -60.159018 281.727430 -0.000000 0.361670 0.442312 -0.338857
7.675000 -47.083895 -343.089123 -0.000000 0.135286 0.207452 -0.093482 -78.402661 303.024225 -0.000000 0.366803 0.434441 -0.339145
7.680000 -77.248032 -383.975776 -0.000000 0.129995 0.215442 -0.093486 -96.835380 327.873988 -0.000000 0.371605 0.426087 -0.339529
7.685000 -101.546208 -402.713746 -0.000000 0.125176 0.223194 -0.093231 -114.831787 355.508375 -0.000000 0.375761 0.417502 -0.339714
7.690000 -118.633678 -399.772757 -0.000000 0.120714 0.231309 -0.093127 -131.093896 385.634725 -0.000000 0.379302 0.408517 -0.339864
